<?xml version="1.0" encoding="utf-8"?>
<!-- Generator: Adobe Illustrator 24.0.0, SVG Export Plug-In . SVG Version: 6.00 Build 0)  -->
<svg version="1.1" id="Capa_1" xmlns="http://www.w3.org/2000/svg" xmlns:xlink="http://www.w3.org/1999/xlink" x="0px" y="0px"
	 viewBox="0 0 792 249.15" style="enable-background:new 0 0 792 249.15;" xml:space="preserve">
<style type="text/css">
	.st0{fill:#0071CD;}
	.st1{fill:#FEC120;}
	.st2{fill:#1D1D1B;}
	.st3{fill:#FFFFFF;}
</style>
<g>
	<path class="st3" d="M288.53,89.88c10.7-17.61,38.77-16.75,46.45,1.62c3.08-4.29,6.64-7.95,11.2-10.53
		c17.35-9.84,36.38-1.34,40.86,18.29c0.92,4.02,1.34,8.1,1.34,12.24c-0.01,15.02-0.1,30.04,0.07,45.05c0.03,2.88-0.9,3.4-3.47,3.3
		c-5.14-0.19-10.3-0.24-15.43,0.02c-2.87,0.14-3.35-0.89-3.33-3.49c0.13-13.58,0.05-27.16,0.06-40.73c0-3.3-0.17-6.58-1.06-9.78
		c-1.94-7.01-6.36-10.6-12.69-10.34c-6.23,0.26-11.61,4.95-12.95,11.31c-0.43,2.02-0.58,4.06-0.58,6.13
		c0.03,14.61-0.04,29.21,0.07,43.82c0.02,2.43-0.62,3.16-3.07,3.08c-5.45-0.18-10.91-0.16-16.36-0.01c-2.2,0.06-2.76-0.68-2.74-2.8
		c0.08-14.3,0.04-28.6,0.04-42.89c0-3.83-0.3-7.58-1.87-11.16c-3.33-7.58-12.2-9.92-18.73-4.79c-4.69,3.68-6.69,8.69-6.68,14.59
		c0.02,14.61-0.06,29.21,0.07,43.82c0.02,2.56-0.63,3.34-3.22,3.24c-5.45-0.2-10.91-0.13-16.36-0.03c-1.83,0.03-2.49-0.43-2.49-2.39
		c0.06-25.41,0.05-50.82,0.02-76.22c0-1.65,0.38-2.4,2.22-2.37c5.45,0.1,10.91,0.09,16.36,0c1.74-0.03,2.39,0.51,2.32,2.28
		C288.44,83.78,288.53,86.45,288.53,89.88z"/>
	<path class="st3" d="M538.3,95.92c0-13.67,0.05-27.34-0.05-41.02c-0.01-2.13,0.51-2.81,2.71-2.75c5.34,0.16,10.7,0.17,16.04,0
		c2.26-0.07,3.01,0.47,2.95,2.86c-0.17,6.68,0.01,13.36-0.11,20.04c-0.04,2.02,0.55,2.64,2.57,2.57c4.62-0.14,9.26,0.04,13.88-0.08
		c1.94-0.05,2.74,0.41,2.69,2.53c-0.13,5.24-0.11,10.49-0.01,15.73c0.04,1.94-0.45,2.73-2.57,2.66c-4.62-0.16-9.25,0.02-13.88-0.08
		c-1.88-0.04-2.71,0.32-2.69,2.48c0.13,10.07,0.1,20.15,0.11,30.22c0,1.97,0.29,3.9,0.86,5.77c1.21,4.02,3.61,5.92,7.82,6.23
		c2.47,0.18,4.96,0.12,7.36-0.48c1.78-0.45,2.12,0.15,2.13,1.74c0.04,4.31,0.15,8.63,0.31,12.94c0.05,1.41-0.26,2.29-1.8,2.67
		c-6.45,1.6-13,2.38-19.56,1.27c-10.28-1.74-16.24-8.15-18.01-18.79c-0.53-3.15-0.75-6.32-0.75-9.51
		C538.31,120.59,538.3,108.25,538.3,95.92z"/>
	<path class="st3" d="M252.44,105.98c0,16.85-0.08,33.71,0.08,50.56c0.03,2.85-0.85,3.41-3.45,3.31c-5.34-0.2-10.69-0.12-16.03-0.02
		c-1.9,0.04-2.7-0.36-2.69-2.52c0.07-34.22,0.06-68.44,0.01-102.67c0-1.82,0.38-2.53,2.37-2.48c5.75,0.13,11.52,0.15,17.27-0.01
		c2.14-0.06,2.5,0.74,2.49,2.65C252.42,71.86,252.44,88.92,252.44,105.98z"/>
	<path class="st3" d="M502.25,93.62c0.71-1.42,1.37-2.88,2.14-4.27c4.76-8.46,13.75-13.17,22.55-12.07
		c1.91,0.24,2.35,0.94,2.32,2.71c-0.1,5.55-0.1,11.1,0,16.65c0.03,1.82-0.5,2.22-2.28,1.98c-2.85-0.37-5.76-0.49-8.6,0.13
		c-8.6,1.85-13.74,8.23-13.88,17.89c-0.2,13.36-0.13,26.73-0.04,40.09c0.02,2.33-0.47,3.22-3.01,3.13
		c-5.75-0.2-11.52-0.13-17.27-0.03c-1.86,0.03-2.48-0.51-2.48-2.43c0.06-25.39,0.06-50.78,0-76.17c0-1.98,0.74-2.41,2.54-2.38
		c5.04,0.09,10.08,0.11,15.11-0.01c1.94-0.05,2.48,0.64,2.43,2.49c-0.11,4.06-0.03,8.13-0.03,12.2
		C501.93,93.56,502.09,93.59,502.25,93.62z"/>
	<path class="st1" d="M721.65,85.6c-0.06-2.24,0.81-3.93,2.67-5.23c12.73-8.88,25.43-17.79,38.12-26.72
		c2.22-1.56,4.49-1.79,7.01-0.91c6.48,2.26,11.24,10.66,9.87,17.38c-0.51,2.5-1.77,4.3-4.12,5.38
		c-14.17,6.57-28.31,13.2-42.49,19.74c-4.4,2.03-9.94-1.98-10.91-7.78C721.71,86.84,721.7,86.21,721.65,85.6z"/>
	<path class="st1" d="M614.32,143.84c0.05-3.18,1.46-5.94,5.18-7.64c13.73-6.26,27.38-12.71,41.08-19.06
		c4.03-1.87,7.7-0.37,10.21,4.08c2.56,4.53,2.03,8.24-1.66,10.84c-12.44,8.75-24.91,17.44-37.33,26.21
		c-2.86,2.02-5.76,1.95-8.72,0.51C618.12,156.36,614.34,150.1,614.32,143.84z"/>
	<path class="st1" d="M614.3,66.83c0.7-5.74,3.38-10.68,9.09-13.63c2.9-1.49,5.65-1.27,8.4,0.66c12.51,8.84,25.07,17.59,37.6,26.4
		c3.41,2.39,3.91,6.38,1.41,10.68c-2.49,4.29-6.18,5.9-9.93,4.17c-13.99-6.47-27.94-13.02-41.92-19.5
		C615.35,73.93,614.31,70.94,614.3,66.83z"/>
	<path class="st1" d="M766.55,159.87c-1.65,0.02-3-0.62-4.3-1.53c-12.6-8.86-25.23-17.68-37.82-26.56
		c-3.29-2.32-3.71-6.53-1.23-10.7c2.47-4.15,6.12-5.76,9.72-4.1c13.98,6.46,27.92,13.01,41.91,19.44c2.96,1.36,4.29,3.64,4.73,6.68
		c0.87,6.06-4.19,14.32-10,16.23C768.6,159.65,767.56,159.7,766.55,159.87z"/>
	<path class="st1" d="M709.54,188.22c1.23,6.58-4.91,10.25-12.19,10.56c-3.21,0.14-6.37-0.49-9.11-2.35
		c-2.73-1.85-4.28-4.27-3.95-7.78c1.41-15.03,2.95-30.05,3.97-45.11c0.33-4.85,4.02-7.09,8.58-7.27c4.96-0.19,8.31,2.37,8.72,6.75
		c1.15,12.37,2.19,24.76,3.27,37.14C709.05,182.72,709.28,185.28,709.54,188.22z"/>
	<path class="st1" d="M709.47,24.3c-1.3,14.94-2.55,29.88-3.91,44.81c-0.41,4.57-3.54,6.76-9.06,6.62
		c-5.05-0.12-7.73-2.46-8.12-6.91c-1.32-15.04-2.68-30.07-4.06-45.1c-0.35-3.81,1.09-6.63,4.75-8.52c4.42-2.29,9.05-2.54,13.74-0.88
		C707.97,16.15,709.77,18.9,709.47,24.3z"/>
	<path class="st3" d="M155.27,210.32c0-3.29-0.03-6.58,0.02-9.86c0.01-0.96-0.36-2.22,0.99-2.6c1.14-0.32,2.39-0.09,3.08,0.9
		c0.97,1.39,1.67,1.3,3.02,0.36c3.95-2.73,8.2-2.5,11.85,0.7c1.21,1.06,1.71,0.71,2.71-0.1c3.54-2.85,7.54-3.17,11.59-1.38
		c3.82,1.69,4.7,5.2,4.78,8.96c0.09,4.42-0.02,8.84,0.11,13.25c0.08,2.56-1.53,2.48-3.25,2.41c-1.68-0.06-3.67,0.5-3.62-2.37
		c0.07-4.21,0.1-8.43-0.09-12.63c-0.17-3.7-3.17-5.39-6.48-3.87c-1.57,0.72-2.26,1.82-2.21,3.63c0.12,4.21-0.08,8.43,0.09,12.64
		c0.13,3.05-1.86,2.55-3.68,2.62c-1.91,0.07-3.42,0.02-3.28-2.68c0.2-3.89,0.1-7.81,0.03-11.71c-0.06-3.43-1.46-5.06-4.1-5.04
		c-2.65,0.02-4.57,2.07-4.62,5.09c-0.06,3.7-0.15,7.41,0.03,11.09c0.14,2.69-1.04,3.32-3.47,3.29c-2.28-0.03-3.74-0.3-3.56-3.15
		C155.43,216.7,155.27,213.51,155.27,210.32z"/>
	<path class="st3" d="M47.33,223.49c-3.94-0.05-7.48-1.17-10.67-3.51c-2.81-2.06-0.16-3.56,0.54-5.17c0.79-1.81,2.02-1.17,3.24-0.28
		c2.29,1.68,4.78,2.81,7.73,2.54c1.92-0.18,3.33-1.1,4.01-2.9c0.66-1.76-0.09-3.24-1.32-4.46c-1.57-1.55-3.58-2.38-5.58-3.21
		c-2.29-0.95-4.49-2.06-6.33-3.76c-3.06-2.83-4.17-6.3-3.2-10.34c0.93-3.86,3.58-6.21,7.26-7.28c5.15-1.5,9.95-0.37,14.48,2.32
		c1.62,0.96,1.86,2.08,0.63,3.49c-1.09,1.25-1.44,3.87-4.09,2.32c-1.87-1.09-3.7-2.26-5.94-2.39c-2.28-0.13-4.5,0.13-5.32,2.65
		c-0.77,2.36,0.68,3.96,2.53,5.09c1.48,0.91,3.13,1.54,4.68,2.33c1.73,0.89,3.55,1.67,5.15,2.76c4.14,2.8,5.8,6.8,4.83,11.12
		c-0.98,4.36-4.5,7.57-9.25,8.37C49.59,223.36,48.45,223.39,47.33,223.49z"/>
	<path class="st3" d="M293.53,213.9c1.85-4.94,3.45-9.25,5.08-13.55c0.79-2.1,5.33-3.52,7.13-2.25c0.9,0.64,0.56,1.48,0.26,2.21
		c-4.63,11.3-9.26,22.59-13.94,33.87c-0.6,1.44-5.41,2.29-6.56,1.22c-0.87-0.81-0.32-1.71,0.01-2.54c1.19-2.95,2.33-5.93,3.66-8.81
		c0.67-1.44,0.6-2.66,0.05-4.09c-2.4-6.22-4.71-12.47-7.04-18.72c-1.15-3.08-0.94-3.09,2.24-3.44c3.42-0.38,4.94,0.93,5.66,4.19
		C290.91,205.79,292.22,209.48,293.53,213.9z"/>
	<path class="st3" d="M227.17,210.07c0-3.18-0.02-6.36,0.01-9.55c0.01-0.98-0.34-2.25,0.95-2.65c1.24-0.38,2.65-0.14,3.32,1.01
		c1.01,1.76,1.79,1.06,3.01,0.26c7.21-4.69,15.25-0.94,15.98,7.6c0.4,4.69,0.13,9.44,0.13,14.16c0,2.72-2.11,1.97-3.6,2.02
		c-1.43,0.04-3.26,0.53-3.22-2.03c0.06-3.8,0.05-7.6,0-11.39c-0.05-3.98-1.47-5.9-4.29-5.97c-3.26-0.07-5.4,2.3-5.42,6.06
		c-0.02,3.49-0.19,6.99,0.05,10.47c0.19,2.79-1.25,2.94-3.36,2.93c-2.2-0.01-3.83-0.13-3.62-3.08
		C227.35,216.65,227.17,213.36,227.17,210.07z"/>
	<path class="st3" d="M328.46,203.8c0-5.34,0.14-10.7-0.06-16.03c-0.11-2.84,1.41-2.88,3.45-2.84c2.02,0.04,3.87-0.27,3.82,2.85
		c-0.15,8.63,0.02,17.27-0.1,25.9c-0.03,2.15,0.6,2.87,2.76,2.76c3.18-0.17,6.38,0.08,9.56-0.08c2.29-0.12,2.61,1.09,2.39,2.85
		c-0.19,1.52,0.91,3.79-2.11,3.78c-5.86-0.02-11.72-0.04-17.58,0.02c-1.89,0.02-2.16-0.98-2.15-2.54
		C328.49,214.9,328.46,209.35,328.46,203.8z"/>
	<path class="st3" d="M489.69,210.52c0-1.34-0.03-2.67,0.01-4.01c0.04-1.39,0.15-2.59-1.96-2.53c-1.98,0.05-1.7-1.7-1.68-2.98
		c0.02-1.25-0.44-3.09,1.57-3.03c2.34,0.07,2.09-1.3,2.06-2.75c-0.01-0.51,0-1.03,0-1.54c0.01-3.61,2.23-5.08,5.73-3.83
		c0.68,0.24,1,0.66,1.05,1.33c0.04,0.61,0.03,1.23,0.04,1.85c0.04,4.69,0.04,4.83,4.55,4.8c2.44-0.01,2.63,1.23,2.6,3.09
		c-0.03,1.77-0.02,3.17-2.52,3.19c-4.62,0.03-4.62,0.16-4.62,4.73c0,1.54-0.04,3.08,0.01,4.62c0.1,3.37,1.16,4.3,4.38,3.64
		c1.72-0.36,2.86-0.49,3.27,1.76c0.36,1.97,0.43,3.25-1.88,4.01c-7.36,2.43-12.54-1.19-12.59-8.95
		C489.69,212.78,489.69,211.65,489.69,210.52z"/>
	<path class="st3" d="M510.71,210.62c0-1.44-0.05-2.88,0.01-4.32c0.06-1.37-0.03-2.33-1.88-2.32c-2.11,0.01-1.55-1.81-1.54-3.02
		c0.01-1.19-0.63-3.03,1.51-3.02c1.82,0.01,2.01-0.9,1.9-2.29c-0.05-0.61-0.01-1.23-0.01-1.85c0.01-3.8,1.93-5.13,5.66-3.98
		c0.69,0.21,1.07,0.58,1.12,1.26c0.05,0.61,0.03,1.23,0.04,1.85c0.05,4.7,0.04,4.81,4.78,4.9c2.27,0.04,2.48,1.23,2.43,2.96
		c-0.04,1.7,0.15,3.25-2.42,3.31c-4.79,0.12-4.79,0.24-4.79,5.2c0,0.82,0,1.64,0,2.47c0.01,5.34,0.32,5.72,5.5,5.1
		c1.79-0.21,1.86,0.81,2.1,1.88c0.33,1.45,0.99,2.91-1.1,3.88c-6.73,3.1-13-0.6-13.32-7.99
		C510.66,213.29,510.71,211.95,510.71,210.62z"/>
	<path class="st3" d="M99.78,210.87c1.8-4.01,3.24-7.28,4.73-10.53c0.96-2.11,5.3-3.47,7.29-2.32c1.06,0.61,0.55,1.43,0.21,2.13
		c-3.48,7.32-6.95,14.65-10.53,21.93c-0.98,2-2.37,1.89-3.33-0.09c-3.54-7.29-7.01-14.62-10.5-21.94c-0.62-1.3-0.45-2.04,1.28-2.2
		c4.83-0.45,5.24-0.29,7.11,4.13C97.19,204.72,98.34,207.45,99.78,210.87z"/>
	<path class="st3" d="M378.05,210.86c1.86-4.15,3.38-7.63,4.97-11.07c0.75-1.64,6.03-2.79,7.32-1.64c0.73,0.65,0.25,1.3-0.05,1.94
		c-3.46,7.23-6.91,14.46-10.38,21.68c-0.41,0.85-0.83,1.7-1.99,1.61c-1.01-0.08-1.3-0.91-1.65-1.64
		c-3.41-7.13-6.8-14.28-10.23-21.41c-0.79-1.64-0.61-2.39,1.45-2.49c4.89-0.23,4.88-0.31,6.79,4.16
		C375.44,204.73,376.6,207.45,378.05,210.86z"/>
	<path class="st3" d="M555.64,210.14c0-3.08-0.05-6.17,0.03-9.25c0.02-1.04-0.59-2.48,0.83-2.99c1.34-0.48,2.77-0.1,3.53,1.18
		c0.81,1.35,1.34,1.29,2.48,0.29c2.32-2.02,5.1-2.53,8.09-1.73c1.25,0.34,2.67,0.85,1.8,2.45c-0.8,1.47-0.34,4.41-3.35,3.8
		c-1.37-0.28-2.61-0.39-3.9,0.13c-1.79,0.72-2.79,1.84-2.73,3.95c0.12,4.21-0.07,8.43,0.07,12.64c0.09,2.66-1.61,2.41-3.26,2.35
		c-1.63-0.06-3.7,0.61-3.61-2.33C555.73,217.13,555.64,213.64,555.64,210.14z"/>
	<path class="st3" d="M361.42,210.53c0,3.29-0.11,6.59,0.04,9.87c0.12,2.75-1.6,2.6-3.43,2.58c-1.8-0.02-3.53,0.21-3.49-2.55
		c0.11-6.68,0.12-13.37,0-20.05c-0.05-2.79,1.67-2.52,3.46-2.52c1.77,0,3.58-0.32,3.45,2.49
		C361.31,203.74,361.42,207.14,361.42,210.53z"/>
	<path class="st3" d="M573.92,214.51c2.45,0.06,4.5,2.1,4.5,4.49c0,2.52-2.22,4.56-4.83,4.43c-2.52-0.12-4.42-2.15-4.31-4.61
		C569.38,216.38,571.47,214.45,573.92,214.51z"/>
	<path class="st3" d="M314.42,219c0,2.55-1.91,4.42-4.5,4.43c-2.56,0-4.46-1.9-4.45-4.47c0.01-2.53,1.97-4.47,4.49-4.45
		C312.5,214.53,314.42,216.46,314.42,219z"/>
	<path class="st3" d="M358.08,193.63c-2.5,0.06-4.3-1.61-4.4-4.08c-0.1-2.38,1.7-4.41,4.03-4.55c2.42-0.15,4.61,1.9,4.63,4.32
		C362.34,191.67,360.47,193.57,358.08,193.63z"/>
	<g>
		<path class="st3" d="M110.52,131.79c0.05,0.06,0.11,0.12,0.16,0.18C110.65,131.89,110.6,131.82,110.52,131.79z"/>
		<path class="st3" d="M148.26,52.16c-5.96,0.14-11.93,0.14-17.89-0.01c-2.06-0.05-2.84,0.59-3.22,2.59
			c-1.23,6.56-2.67,13.07-4.02,19.61c-4.02,19.5-8.31,38.96-11.53,58.62c0.14,0.59,0.01,1.65-0.3,1.54
			c-1.36-0.46-0.74-1.73-0.78-2.72c-0.04-0.41-0.07-0.82-0.14-1.22c-4.17-25.63-10.24-50.89-15.41-76.32
			c-0.34-1.66-1.09-2.1-2.71-2.08c-6.47,0.08-12.95,0.13-19.42-0.02c-2-0.05-2.6,0.76-2.99,2.48
			c-5.88,26.12-12.55,52.07-17.55,78.39c-0.04,0.61,0.38,1.7-0.63,1.51c-0.76-0.15-0.51-1.32-0.45-2.09
			c-0.22-1.11-0.47-2.21-0.66-3.32C46.35,104,41.14,79.07,36.37,54.07c-0.21-1.12-0.48-1.89-1.88-1.88
			c-7.5,0.05-14.99,0.02-22.66,0.02c0.23,1.2,0.37,2.2,0.61,3.17c3.88,15.96,7.76,31.91,11.68,47.86
			c3.62,14.75,7.01,29.56,11.04,44.2c2.79,10.14,8.13,13.62,18.57,13.45c2.04-0.03,4.08-0.48,6.13-0.55c2-0.06,2.74-0.97,3.2-2.9
			c3.1-12.98,6.4-25.91,9.54-38.88c3.05-12.57,6.46-25.06,8.33-37.88c-0.02-0.65-0.41-1.76,0.64-1.55c0.86,0.17,0.5,1.35,0.42,2.13
			c0.12,1.12,0.21,2.25,0.38,3.37c3.08,20.32,8.09,40.25,12.41,60.32c2.6,12.06,8.76,16.55,21.06,15.92
			c6.35-0.33,6.38-0.32,7.97-6.36c8.78-33.25,17.53-66.5,26.36-99.73C150.68,52.76,150.54,52.11,148.26,52.16z"/>
		<path class="st3" d="M111.6,132.97c-0.31-0.33-0.61-0.67-0.92-1C110.85,132.43,110.38,133.47,111.6,132.97z"/>
		<path class="st3" d="M52.31,133.02c-0.36-0.19-0.72-0.39-1.08-0.58C51.52,132.75,51.54,133.58,52.31,133.02z"/>
		<path class="st3" d="M80.92,80.69c0.35,0.19,0.71,0.38,1.06,0.57C81.67,80.98,81.8,79.91,80.92,80.69z"/>
	</g>
	<path class="st3" d="M468.44,158.34c-2.03-15.05-0.76-30.19-1.07-45.29c-0.07-3.19-0.14-6.37-0.62-9.53
		c-1.86-12.23-7.94-21.27-20.28-24.55c-14.35-3.81-28.32-1.72-41.79,4.32c-1.73,0.78-1.88,1.76-1.35,3.38
		c1.05,3.22,2.06,6.46,2.85,9.75c0.54,2.25,1.16,2.6,3.39,1.48c7.87-3.96,16.18-6.01,25.05-4.36c6.01,1.12,9.61,5.1,10,10.52
		c0.13,1.86-0.29,2.55-2.28,2.51c-4.74-0.08-9.45,0.4-14.12,1.21c-8.51,1.48-16.69,3.9-23.13,10.02c-7.64,7.26-9.79,16.31-7.1,26.28
		c2.6,9.65,9.38,15.44,19.11,17.07c11.2,1.88,21.25-0.76,29.31-9.76c5.26,8.82,11.61,11.52,20.44,8.97
		C468,160.03,468.63,159.74,468.44,158.34z M445.31,128.06c0,9.66-3.11,14.61-10.63,16.89c-6.44,1.95-12.39-0.23-14.47-5.3
		c-2.5-6.1-0.01-12.34,6.27-15.46c5.39-2.68,11.26-3,17.13-3.25c1.41-0.06,1.75,0.64,1.71,1.88
		C445.27,124.56,445.31,126.31,445.31,128.06z"/>
	<path class="st3" d="M217.15,158.55c-2.08-15.37-0.82-30.82-1.13-46.23c-0.06-2.99-0.14-5.97-0.6-8.92
		c-1.89-12.08-7.87-21.09-20.09-24.39c-14.46-3.9-28.53-1.83-42.08,4.35c-1.38,0.63-1.84,1.35-1.38,2.83
		c1.32,4.21,2.54,8.45,3.88,12.99c2.94-1.74,5.65-2.98,8.5-3.87c6.35-1.99,12.78-3.19,19.43-1.73c5.68,1.26,9.17,5.08,9.59,10.24
		c0.15,1.84-0.11,2.8-2.37,2.76c-3.18-0.06-6.38,0.21-9.54,0.57c-9.08,1.04-17.86,3.11-25.36,8.71
		c-15.58,11.63-13.32,35.92,4.01,43.61c10.61,4.71,25.02,2,33.27-6.22c0.62-0.61,0.98-1.62,2.09-1.64
		c3.99,9.32,11.6,10.57,20.26,8.69C216.69,160.09,217.32,159.83,217.15,158.55z M194.06,127.83c0,9.83-3.19,14.91-10.78,17.14
		c-6.47,1.9-12.41-0.33-14.42-5.43c-2.38-6.05,0.04-12.16,6.13-15.27c5.37-2.75,11.24-3.06,17.11-3.35
		c1.48-0.07,2.04,0.51,1.97,1.97C193.99,124.54,194.06,126.19,194.06,127.83z"/>
	<path class="st3" d="M454.1,202.41c-3.31-4.67-7.97-5.89-13.35-4.65c-1.99,0.46-2.72,0.12-2.57-2.06c0.18-2.66-0.08-5.35,0.08-8.01
		c0.16-2.58-1.27-2.82-3.27-2.76c-1.92,0.06-3.71-0.21-3.63,2.72c0.16,5.44,0.04,10.9,0.04,16.34c0,5.45-0.02,10.9,0.01,16.35
		c0.01,0.96-0.4,2.22,0.92,2.66c1.16,0.39,2.47,0.05,3.08-0.88c1.16-1.75,2.02-1.1,3.4-0.27c5.38,3.25,11.99,1.61,15.39-3.67
		C457.15,213.62,457.17,206.75,454.1,202.41z M449.41,211.81c-0.59,3.83-3.57,5.98-7.23,5.24c-3.1-0.63-3.95-2.24-3.95-7.46
		c0-4.99,1.25-6.38,5.45-6.03C447.59,203.88,450.08,207.47,449.41,211.81z"/>
	<path class="st3" d="M536.58,211.65c2.05,0.09,4.11,0.02,6.16,0.02c2.16,0,4.32-0.1,6.47,0.03c1.96,0.11,2.47-0.88,2.53-2.58
		c0.2-5.19-3.21-9.93-8.22-11.32c-5.5-1.53-11.17,0.75-14.06,5.64c-3.07,5.19-2.23,12.36,1.94,16.53
		c3.94,3.93,10.91,4.74,15.97,1.66c1.15-0.7,3.63-1.16,2.07-3.52c-1.12-1.7-1.89-3.82-4.88-1.78c-3.43,2.34-7.73,1.09-9.38-2.02
		C534.35,212.72,534.13,211.55,536.58,211.65z M536.94,203.9c1.15-0.76,2.45-1.13,3.81-0.87c1.82,0.35,3.77,1.26,3.65,3.16
		c-0.13,2-2.27,0.65-3.47,1c-0.48,0.14-1.02,0.02-1.54,0.02c-0.51,0-1.05,0.08-1.54-0.02c-0.92-0.19-2.34,0.69-2.68-0.62
		C534.89,205.43,535.98,204.54,536.94,203.9z"/>
	<path class="st3" d="M129.24,197.83c-5.84-1.66-11.81,0.92-14.56,6.3c-2.86,5.6-1.51,12.74,3.12,16.54
		c4.48,3.68,12.19,3.7,16.6,0.06c0.71-0.59,1.45-1.04,0.94-2.25c-1.12-2.63-2.68-3.28-5.24-1.99c-3.59,1.8-7.55,0.93-9.23-2.05
		c-0.95-1.69-1.13-2.92,1.49-2.79c2.05,0.1,4.1,0.02,6.16,0.02c2.16,0,4.31-0.06,6.47,0.02c1.55,0.05,2.16-0.58,2.29-2.14
		C137.71,204.26,134.37,199.29,129.24,197.83z M130.05,206.48c-0.23,1.52-2.26,0.45-3.45,0.72c-0.39,0.09-0.81,0.01-1.22,0.01
		c-0.71,0-1.43,0.06-2.14-0.02c-0.85-0.1-2.14,0.51-2.45-0.48c-0.36-1.13,0.65-2.06,1.58-2.71c1.3-0.91,2.75-1.31,4.34-0.89
		C128.5,203.59,130.34,204.59,130.05,206.48z"/>
	<path class="st3" d="M263.75,211.64c2.05,0.1,4.11,0.02,6.17,0.02c2.16,0,4.32-0.08,6.47,0.02c1.9,0.09,2.5-0.8,2.56-2.57
		c0.15-4.79-2.91-9.48-7.36-11.08c-5.73-2.06-12.14,0.35-15.13,5.69c-3.17,5.66-1.82,13.08,3.09,17.06
		c4.46,3.62,12.43,3.53,16.62-0.17c0.63-0.56,1.2-1.02,0.81-2.06c-0.97-2.54-2.82-3.34-5.22-2.11c-3.72,1.89-7.77,0.95-9.44-2.19
		C261.47,212.64,261.33,211.52,263.75,211.64z M264.38,203.76c2.31-1.25,4.53-1.11,6.46,0.79c0.57,0.57,1.15,1.3,0.77,2.17
		c-0.37,0.85-1.25,0.42-1.91,0.48c-0.81,0.07-1.63,0.02-2.45,0.02c-0.72,0-1.44,0.09-2.14-0.02c-0.93-0.14-2.35,0.65-2.68-0.62
		C262.09,205.26,263.29,204.34,264.38,203.76z"/>
	<path class="st3" d="M475.6,197.85c-5.58-1.63-11.42,0.69-14.34,5.68c-3.06,5.25-2.16,12.34,2.09,16.5
		c4.1,4.02,11.11,4.66,16.26,1.4c1.18-0.75,3.18-1.36,1.64-3.44c-1.14-1.54-1.79-3.66-4.66-1.73c-3.64,2.45-8.32,1.03-9.76-2.36
		c-0.62-1.46-0.54-2.34,1.41-2.25c2.15,0.09,4.31,0.02,6.47,0.02c2.16,0,4.32-0.04,6.47,0.01c1.47,0.04,2.22-0.4,2.36-2.05
		C484.01,204.34,480.71,199.34,475.6,197.85z M476.42,206.81c-0.32,0.66-1.08,0.37-1.64,0.39c-1.12,0.04-2.25,0.01-3.38,0.01
		c-0.41,0-0.84,0.08-1.22-0.02c-1.07-0.27-2.87,0.78-3.11-0.75c-0.23-1.43,1.25-2.48,2.65-3.02c2.34-0.9,4.44-0.52,6.09,1.45
		C476.24,205.39,476.78,206.06,476.42,206.81z"/>
	<path class="st3" d="M407.67,197.87c-5.59-1.65-11.49,0.64-14.37,5.58c-3.09,5.31-2.26,12.32,1.97,16.52
		c4.06,4.03,11.11,4.72,16.24,1.5c1.18-0.74,3.21-1.33,1.73-3.42c-1.09-1.55-1.72-3.72-4.62-1.8c-3.71,2.45-8.23,1.1-9.79-2.31
		c-0.65-1.43-0.67-2.35,1.32-2.28c2.15,0.07,4.31,0.02,6.47,0.01c2.26,0,4.52-0.03,6.78,0.01c1.38,0.02,1.99-0.52,2.15-1.96
		C416.13,204.55,412.73,199.37,407.67,197.87z M405.11,207.18c-0.46,0.15-1.01,0.02-1.53,0.02c-0.61,0-1.24,0.08-1.84-0.02
		c-0.93-0.15-2.38,0.64-2.69-0.58c-0.32-1.25,0.84-2.22,1.93-2.84c1.38-0.79,2.84-1.06,4.42-0.54c1.59,0.51,3.12,1.56,2.96,3.1
		C408.17,208.23,406.23,206.83,405.11,207.18z"/>
	<path class="st3" d="M210.19,197.3c-7.03,0.02-12.79,5.95-12.76,13.14c0.03,7.29,5.68,13.02,12.82,13
		c7.13-0.02,12.75-5.77,12.76-13.06C223.02,203.21,217.2,197.28,210.19,197.3z M210.16,217.19c-3.53-0.01-6.42-3.09-6.42-6.84
		c0.01-3.65,3.06-6.85,6.51-6.81c3.48,0.04,6.47,3.25,6.43,6.9C216.64,214.16,213.71,217.2,210.16,217.19z"/>
	<path class="st3" d="M85.15,214.09c0,0-0.01,0-0.01,0c0-2.06,0.05-4.11-0.01-6.17c-0.21-7.22-4.21-10.94-11.43-10.59
		c-1.53,0.07-3.05,0.43-4.57,0.63c-2.48,0.33-3.09,1.57-2.58,4.05c0.55,2.63,1.94,1.93,3.63,1.61c1.6-0.3,3.27-0.35,4.9-0.27
		c1.68,0.08,2.84,1.1,3.35,2.74c0.31,0.99,0.23,1.64-1.11,1.31c-1.92-0.46-3.89-0.45-5.83-0.17c-4.56,0.66-7.39,3.58-7.49,7.6
		c-0.17,7.06,6.59,10.94,13.36,7.55c1.6-0.8,2.6-1.45,4.32,0.1c1.81,1.64,3.39,0.62,3.45-1.92
		C85.19,218.4,85.15,216.25,85.15,214.09z M78.51,214.26c-0.17,2.37-1.79,4.05-4.33,4.08c-2.23,0.03-3.45-1.12-3.61-3.29
		c-0.16-2.2,1.57-3.58,4.53-3.62C76.74,211.58,78.71,211.38,78.51,214.26z"/>
</g>
</svg>
